<?xml version="1.0" standalone="no"?>
<!DOCTYPE svg PUBLIC "-//W3C//DTD SVG 20010904//EN"
 "http://www.w3.org/TR/2001/REC-SVG-20010904/DTD/svg10.dtd">
<svg version="1.0" xmlns="http://www.w3.org/2000/svg"
 width="482.000000pt" height="482.000000pt" viewBox="0 0 482.000000 482.000000"
 preserveAspectRatio="xMidYMid meet">
<metadata>
Created by potrace 1.14, written by Peter Selinger 2001-2017
</metadata>
<g transform="translate(0.000000,482.000000) scale(0.100000,-0.100000)"
fill="#000000" stroke="none">
<path d="M2348 4615 c-2 -1 -35 -5 -74 -8 -575 -49 -1074 -494 -1198 -1067
-30 -138 -40 -336 -23 -430 3 -14 8 -43 12 -65 36 -203 175 -537 348 -835 95
-163 305 -471 402 -589 276 -334 463 -501 578 -516 70 -10 169 56 338 224 412
411 818 1046 978 1531 56 172 70 258 66 420 -4 158 -7 187 -36 300 -63 250
-204 490 -391 665 -183 170 -445 306 -658 341 -19 3 -38 8 -41 9 -12 8 -294
26 -301 20z m-5 -137 c10 -27 5 -663 -5 -676 -26 -31 -510 36 -524 72 -3 7 9
47 25 89 99 250 258 437 426 506 59 24 71 25 78 9z m234 -18 c92 -40 188 -125
269 -236 68 -95 164 -296 164 -344 0 -18 -42 -33 -127 -45 -21 -4 -45 -8 -53
-10 -8 -2 -37 -7 -65 -10 -27 -3 -66 -8 -85 -10 -106 -15 -188 -16 -196 -3
-11 18 -13 648 -2 671 10 20 23 18 95 -13z m-667 -91 c0 -5 -22 -42 -49 -82
-64 -96 -100 -163 -145 -277 -21 -52 -40 -97 -42 -99 -4 -5 -105 35 -176 71
-37 18 -58 34 -58 46 0 22 155 173 242 234 80 58 209 129 220 122 4 -3 8 -10
8 -15z m1150 -53 c89 -53 168 -115 245 -192 87 -87 92 -98 57 -122 -53 -36
-197 -96 -212 -87 -4 2 -17 33 -30 67 -31 87 -122 263 -168 323 -33 44 -39 58
-33 80 2 7 68 -25 141 -69z m-1616 -450 c48 -25 110 -53 137 -62 26 -10 50
-23 52 -29 3 -5 -2 -39 -9 -75 -8 -36 -17 -85 -20 -110 -2 -25 -7 -52 -9 -60
-2 -8 -7 -60 -10 -115 -4 -55 -8 -102 -10 -106 -6 -9 -388 -7 -407 2 -10 5
-15 15 -13 22 2 6 6 37 10 67 12 114 50 244 106 368 27 58 75 142 82 142 2 0
43 -20 91 -44z m2033 36 c18 -12 101 -180 128 -262 40 -120 76 -328 58 -332
-35 -6 -405 -3 -409 4 -6 9 -8 28 -19 153 -6 78 -13 124 -33 230 -16 84 -17
82 101 135 59 27 118 55 130 64 26 18 28 18 44 8z m-1590 -186 c39 -9 88 -18
110 -22 21 -3 48 -7 61 -9 23 -4 106 -11 214 -19 32 -3 62 -7 67 -10 4 -3 8
-83 7 -178 l-1 -173 -315 0 -315 0 0 75 c1 86 9 152 31 265 19 96 19 96 47 90
12 -2 54 -11 94 -19z m1172 5 c6 -10 13 -33 16 -52 3 -19 10 -56 15 -84 24
-127 32 -261 17 -273 -15 -11 -601 -12 -619 -1 -9 6 -13 49 -13 169 0 89 3
166 6 172 4 6 29 12 56 13 72 3 227 17 233 20 3 2 28 6 55 10 28 3 86 14 130
25 44 10 83 19 87 19 4 1 12 -7 17 -18z m-1486 -551 c3 -3 8 -49 12 -104 4
-54 8 -106 10 -116 2 -9 6 -39 10 -66 3 -27 12 -76 19 -108 8 -33 12 -65 10
-71 -3 -6 -31 -22 -62 -35 -31 -13 -92 -41 -135 -62 -92 -46 -91 -46 -140 50
-95 186 -170 485 -128 512 11 6 398 7 404 0z m764 1 c14 -1 16 -329 2 -347 -5
-6 -37 -12 -71 -13 -34 -1 -76 -4 -92 -6 -17 -2 -58 -7 -91 -10 -33 -3 -115
-17 -183 -31 -68 -13 -127 -22 -132 -19 -4 2 -11 22 -16 42 -4 21 -8 40 -9 43
-1 5 -13 84 -22 140 -12 84 -15 193 -5 199 8 5 569 7 619 2z m770 -4 c12 -7
11 -36 -2 -160 -10 -93 -40 -255 -49 -264 -2 -2 -60 7 -127 20 -68 14 -153 28
-189 32 -36 4 -78 9 -95 11 -16 2 -58 4 -93 5 -34 1 -66 7 -69 13 -4 6 -8 84
-8 174 0 120 3 165 12 170 16 10 605 8 620 -1z m547 4 c19 -1 19 -5 0 -141
-11 -79 -64 -242 -108 -335 -69 -144 -55 -138 -179 -77 -58 29 -111 52 -117
52 -6 0 -22 7 -36 17 -28 18 -28 19 0 163 14 71 27 190 30 273 1 21 7 41 13
45 9 6 322 8 397 3z m-1311 -496 c2 -5 4 -161 3 -345 -1 -389 8 -365 -115
-305 -97 48 -224 174 -294 291 -57 96 -117 232 -120 271 -2 26 1 28 73 44 67
16 96 21 190 34 14 2 59 7 100 11 41 3 76 7 77 8 9 7 84 -1 86 -9z m317 0
c111 -10 331 -52 346 -67 11 -11 6 -29 -24 -103 -86 -207 -202 -362 -335 -450
-59 -38 -152 -73 -164 -62 -13 14 -10 669 4 682 7 7 30 11 55 9 24 -2 77 -6
118 -9z m-970 -137 c0 -32 102 -243 156 -324 58 -87 75 -124 58 -124 -10 0
-117 56 -169 88 -107 67 -295 242 -295 275 0 14 27 29 150 83 55 24 77 30 87
22 7 -6 13 -15 13 -20z m1662 -55 c17 -10 33 -23 35 -29 5 -15 -136 -159 -212
-216 -58 -44 -232 -148 -246 -148 -24 0 -14 28 36 102 59 87 131 229 160 313
9 27 21 53 27 56 11 7 142 -44 200 -78z"/>
<path d="M2300 825 c-171 -45 -274 -174 -284 -354 -8 -131 50 -257 154 -333
133 -97 365 -90 494 16 149 122 182 348 76 516 -30 46 -40 56 -100 101 -80 59
-232 83 -340 54z"/>
</g>
</svg>
